<svg xmlns="http://www.w3.org/2000/svg" xml:space="preserve" viewBox="0 0 512 512">
  <path d="M256 0C155.174 0 73.143 82.027 73.143 182.857c0 67.839 38.46 130.937 98.424 162.232l1.817 25.482c.357 5.036 4.719 8.911 9.772 8.464 5.036-.357 8.826-4.732 8.469-9.768l-2.187-30.661a9.13 9.13 0 0 0-5.134-7.571c-56.42-27.348-92.875-85.518-92.875-148.178 0-90.741 73.826-164.571 164.571-164.571s164.571 73.83 164.571 164.571c0 66.919-39.969 126.652-101.821 152.196a9.145 9.145 0 0 0-5.629 7.795l-3.978 55.661c-.357 5.036 3.433 9.411 8.469 9.768.223.018.442.027.661.027 4.755 0 8.768-3.679 9.112-8.491l3.58-50.116c65.732-29.527 107.893-94.402 107.893-166.839C438.857 82.027 356.826 0 256 0zM312.915 420.804l-118.857-27.429c-4.906-1.134-9.83 1.937-10.969 6.857-1.134 4.92 1.933 9.83 6.853 10.964l118.857 27.429a9.147 9.147 0 0 0 10.969-6.857c1.134-4.92-1.933-9.831-6.853-10.964zM312.915 457.375l-118.857-27.429c-4.906-1.134-9.83 1.937-10.969 6.857-1.134 4.92 1.933 9.83 6.853 10.964l118.857 27.429a9.147 9.147 0 0 0 10.969-6.857c1.134-4.919-1.933-9.83-6.853-10.964zM312.915 493.947l-118.857-27.429c-4.906-1.143-9.83 1.928-10.969 6.857-1.134 4.92 1.933 9.83 6.853 10.964l118.857 27.429a9.147 9.147 0 0 0 10.969-6.857c1.134-4.92-1.933-9.831-6.853-10.964z"/>
</svg>
